HIERARCHY
ROOT hip
{
	OFFSET 0.000000 0.000000 0.000000 
	CHANNELS 6 Xposition Yposition Zposition Xrotation Zrotation Yrotation
	JOINT abdomen
	{
		OFFSET 0.000000 3.402643 0.000000 
		CHANNELS 3 Xrotation Zrotation Yrotation
		JOINT chest
		{
			OFFSET 0.000000 8.438565 -0.680529 
			CHANNELS 3 Xrotation Zrotation Yrotation
			JOINT neck
			{
				OFFSET 0.000000 10.207942 -0.272212 
				CHANNELS 3 Xrotation Zrotation Yrotation
				JOINT head
				{
					OFFSET 0.000000 3.130431 0.000000 
					CHANNELS 3 Xrotation Zrotation Yrotation
					End Site
					{
						OFFSET 0.000000 3.130435 0.000000 
					}
				}
			}
			JOINT lCollar
			{
				OFFSET 3.470700 6.669187 -0.816635 
				CHANNELS 3 Yrotation Zrotation Xrotation
				JOINT lShldr
				{
					OFFSET 3.198488 0.000000 0.000000 
					CHANNELS 3 Zrotation Yrotation Xrotation
					JOINT lForeArm
					{
						OFFSET 10.139888 0.000000 0.000000 
						CHANNELS 3 Yrotation Zrotation Xrotation
						JOINT lHand
						{
							OFFSET 8.370511 0.000000 0.000000 
							CHANNELS 3 Zrotation Yrotation Xrotation
							End Site
							{
								OFFSET 4.083176 0.000000 0.000000 
							}
						}
					}
				}
			}
			JOINT rCollar
			{
				OFFSET -3.470700 6.669187 -0.816635 
				CHANNELS 3 Yrotation Zrotation Xrotation
				JOINT rShldr
				{
					OFFSET -3.198488 0.000000 0.000000 
					CHANNELS 3 Zrotation Yrotation Xrotation
					JOINT rForeArm
					{
						OFFSET -10.139888 0.000000 0.000000 
						CHANNELS 3 Yrotation Zrotation Xrotation
						JOINT rHand
						{
							OFFSET -8.370511 0.000000 0.000000 
							CHANNELS 3 Zrotation Yrotation Xrotation
							End Site
							{
								OFFSET -4.083176 0.000000 0.000000 
							}
						}
					}
				}
			}
		}
	}
	JOINT lThigh
	{
		OFFSET 5.308129 -1.633274 1.361059 
		CHANNELS 3 Xrotation Zrotation Yrotation
		JOINT lShin
		{
			OFFSET -2.041588 -20.007561 0.000000 
			CHANNELS 3 Xrotation Zrotation Yrotation
			JOINT lFoot
			{
				OFFSET 0.000000 -19.190928 -1.224953 
				CHANNELS 3 Xrotation Yrotation Zrotation
				End Site
				{
					OFFSET 0.000000 -2.449906 4.627600 
				}
			}
		}
	}
	JOINT rThigh
	{
		OFFSET -5.308129 -1.633274 1.361059 
		CHANNELS 3 Xrotation Zrotation Yrotation
		JOINT rShin
		{
			OFFSET 2.041588 -20.007561 0.000000 
			CHANNELS 3 Xrotation Zrotation Yrotation
			JOINT rFoot
			{
				OFFSET 0.000000 -19.190928 -1.224953 
				CHANNELS 3 Xrotation Yrotation Zrotation
				End Site
				{
					OFFSET 0.000000 -2.449906 4.627600 
				}
			}
		}
	}
}
MOTION
Frames: 11
Frame Time: 0.033333
0.171862 51.463760 0.171862 -0.009766 0.000000 0.000000 20.092623 -1.953181 -0.735773 -15.937502 -0.009390 -0.007084 -8.544922 -0.001505 -0.009645 23.447519 2.076200 -0.032822 2.000000 -2.000000 0.000000 -81.250671 7.831815 -7.178759 1.583567 -1.002287 8.278811 -1.850040 18.558958 -18.072287 -2.000000 2.000000 0.000000 87.186615 -3.454383 -19.347416 1.909036 0.953956 8.280041 -7.340278 -20.021700 -18.652843 0.205719 4.772732 -6.044570 25.939474 -1.363773 -2.232254 33.001465 1.570055 -7.698241 7.116229 -5.476420 -6.299405 24.983488 1.371034 2.125698 6.365514 5.864876 0.234266 
0.141811 51.438763 0.141811 -0.009766 0.000000 0.000000 20.152527 -4.701670 -1.768712 -14.326172 -0.009462 -0.007351 -8.544922 -0.001505 -0.009645 21.829245 5.018848 -0.084776 2.000000 -2.000000 0.000000 -77.680298 6.568960 -6.436436 1.583567 -1.002287 8.278811 -1.850040 18.558958 -18.072287 -2.000000 2.000000 0.000000 89.993698 -1.930375 -20.121569 1.909036 0.953956 8.280041 -7.340278 -20.021700 -18.652843 -13.688485 3.153831 -6.030730 15.223443 -1.689568 -1.536210 47.152439 2.154778 -6.786077 -12.963713 -7.233125 -4.856542 24.064301 1.405703 2.045883 23.578186 6.042931 0.820066 
0.131793 51.438763 0.131793 -0.009766 0.000000 0.000000 20.250408 -7.263414 -2.747899 -12.099609 -0.009549 -0.007720 -8.544922 -0.001505 -0.009645 19.604206 7.745688 -0.129596 2.000000 -2.000000 0.000000 -74.085022 4.850082 -5.965122 1.583567 -1.002287 8.278811 -1.850040 18.558958 -18.072287 -2.000000 2.000000 0.000000 92.232925 -0.133859 -20.647030 1.909036 0.953956 8.280041 -7.340278 -20.021700 -18.652843 -21.874266 2.255498 -5.818453 7.792668 -1.823671 -1.031640 54.864811 2.626883 -6.017962 -25.389692 -8.017657 -3.428255 21.761909 1.493046 1.922050 36.656384 6.064358 1.214159 
0.101743 51.438763 0.101743 -0.009766 0.000000 0.000000 20.325697 -8.649752 -3.278581 -10.195313 -0.009611 -0.008039 -8.544922 -0.001505 -0.009645 17.697723 9.228580 -0.138160 2.000000 -2.000000 0.000000 -71.842941 3.472583 -5.965093 1.583567 -1.002287 8.278811 -1.850040 18.558958 -18.072287 -2.000000 2.000000 0.000000 92.982071 1.092226 -20.684477 1.909036 0.953956 8.280041 -7.340278 -20.021700 -18.652843 -19.811857 2.490020 -5.903739 5.746383 -1.843685 -0.863506 53.259068 2.795251 -5.951050 -23.941284 -7.928397 -3.499454 18.724731 1.571660 1.706684 43.089520 6.196264 0.660487 
0.061674 51.438763 0.061674 -0.009766 0.000000 0.000000 20.302956 -8.147454 -3.088547 -8.632813 -0.009655 -0.008300 -8.544922 -0.001505 -0.009645 16.132526 8.684104 -0.145074 2.000000 -2.000000 0.000000 -72.052742 2.225079 -6.396657 1.583567 -1.002287 8.278811 -1.850040 18.558958 -18.072287 -2.000000 2.000000 0.000000 91.608086 1.778363 -20.366798 1.909036 0.953956 8.280041 -7.340278 -20.021700 -18.652843 -13.542057 3.183074 -6.029715 5.981107 -1.843961 -0.885961 46.898487 2.954171 -6.151802 -16.686253 -7.508276 -3.949294 14.539148 1.679395 1.440164 46.798168 6.143458 0.030967 
0.046648 51.463760 0.046648 -0.009766 0.000000 0.000000 20.202517 -6.142656 -2.317041 -7.089843 -0.009691 -0.008562 -8.544922 -0.001505 -0.009645 14.590403 6.545686 -0.106918 2.000000 -2.000000 0.000000 -73.906181 1.039997 -7.038034 1.583567 -1.002287 8.278811 -1.850040 18.558958 -18.072287 -2.000000 2.000000 0.000000 88.596207 2.388550 -19.903212 1.909036 0.953956 8.280041 -7.340278 -20.021700 -18.652843 -6.182325 4.057780 -6.061519 6.893083 -1.843941 -0.974220 39.230896 3.099391 -6.391989 -7.915720 -6.919597 -4.445602 10.331438 1.767314 1.155079 48.970631 5.992537 -0.558889 
0.006580 51.513897 0.006580 -0.009766 0.000000 0.000000 20.118919 -3.274790 -1.239606 -6.005859 -0.009712 -0.008746 -8.544922 -0.001505 -0.009645 13.515082 3.482987 -0.057997 2.000000 -2.000000 0.000000 -76.219147 0.609880 -7.468393 1.583567 -1.002287 8.278811 -1.850040 18.558958 -18.072287 -2.000000 2.000000 0.000000 84.654350 2.603815 -19.457489 1.909036 0.953956 8.280041 -7.340278 -20.021700 -18.652843 -0.956774 4.648025 -6.051437 7.802477 -1.826007 -1.022529 33.913128 3.222387 -6.548954 -1.806300 -6.482077 -4.714141 8.096637 1.814406 0.999054 50.764339 5.857857 -0.978062 
-0.018463 51.538898 -0.018463 -0.009766 0.000000 0.000000 20.086756 1.507671 0.562302 -5.703125 -0.009717 -0.008795 -8.544922 -0.001505 -0.009645 13.204966 -1.605924 0.005331 2.000000 -2.000000 0.000000 -80.346733 1.062984 -7.716668 1.583567 -1.002287 8.278811 -1.850040 18.558958 -18.072287 -2.000000 2.000000 0.000000 78.817711 2.231513 -18.848852 1.909036 0.953956 8.280041 -7.340278 -20.021700 -18.652843 0.087878 4.731497 -6.083206 7.812285 -1.826933 -1.023103 33.548981 3.302218 -6.532068 -0.381148 -6.435536 -4.761191 5.870312 1.841976 0.850732 52.319695 5.885935 -1.093199 
-0.018463 51.614033 -0.018463 -0.009766 0.000000 0.000000 20.253439 7.141074 2.684045 -5.859375 -0.009715 -0.008769 -8.544922 -0.001505 -0.009645 13.353302 -7.629457 0.119737 2.000000 -2.000000 0.000000 -85.424461 1.939999 -7.963175 1.583567 -1.002287 8.278811 -1.850040 18.558958 -18.072287 -2.000000 2.000000 0.000000 72.306564 1.705548 -18.134449 1.909036 0.953956 8.280041 -7.340278 -20.021700 -18.652843 -0.838522 4.594739 -6.107500 7.802477 -1.826006 -1.022529 35.158230 3.312745 -6.486827 -1.220468 -6.568160 -4.721355 5.757098 1.844155 0.844553 52.502388 5.993840 -1.016209 
-0.033489 51.689167 -0.033489 -0.009766 0.000000 0.000000 20.399048 9.812008 3.711601 -6.005859 -0.009712 -0.008746 -8.544922 -0.001505 -0.009645 13.501151 -10.488647 0.167150 2.000000 -2.000000 0.000000 -87.586525 2.603173 -8.028532 1.583567 -1.002287 8.278811 -1.850040 18.558958 -18.072287 -2.000000 2.000000 0.000000 69.282906 1.478328 -17.752394 1.909036 0.953956 8.280041 -7.340278 -20.021700 -18.652843 -0.956775 4.648024 -6.051437 7.802477 -1.826008 -1.022529 33.913128 3.222387 -6.548954 -1.806300 -6.482077 -4.714141 7.996277 1.815969 0.993505 50.764660 5.854565 -0.977781 
-0.058531 51.829430 -0.058531 -0.009766 0.000000 0.000000 20.371639 9.309900 3.521280 -6.005859 -0.009712 -0.008746 -8.544922 -0.001505 -0.009645 13.502689 -9.953405 0.164121 2.000000 -2.000000 0.000000 -86.737312 2.805842 -7.870786 1.583567 -1.002287 8.278811 -1.850040 18.558958 -18.072287 -2.000000 2.000000 0.000000 69.820145 1.459786 -17.807611 1.909036 0.953956 8.280041 -7.340278 -20.021700 -18.652843 1.092983 5.201040 -5.887998 11.306637 -1.777954 -1.266817 28.338404 3.110748 -6.745492 -1.014983 -6.045732 -4.679310 10.222880 1.767236 1.139532 47.076271 5.428148 -1.060682 
